<?xml version="1.0" encoding="utf-8"?>
<!-- Generator: Adobe Illustrator 17.0.0, SVG Export Plug-In . SVG Version: 6.00 Build 0)  -->
<!DOCTYPE svg PUBLIC "-//W3C//DTD SVG 1.1//EN" "http://www.w3.org/Graphics/SVG/1.1/DTD/svg11.dtd">
<svg version="1.1" id="Слой_1" xmlns="http://www.w3.org/2000/svg" xmlns:xlink="http://www.w3.org/1999/xlink" x="0px" y="0px"
	 width="20px" height="20px" viewBox="0 0 20 20" enable-background="new 0 0 20 20" xml:space="preserve">
<g>
	<path fill="#455672" d="M15.25,5.28H4.53c-0.23,0-0.39,0.11-0.48,0.33C3.95,5.84,4,6.05,4.16,6.2l4.12,4.13v4.06
		c0,0.16,0.05,0.28,0.16,0.38l2.15,2.14c0.1,0.11,0.22,0.17,0.38,0.17c0.06,0,0.12-0.02,0.2-0.05c0.22-0.09,0.33-0.26,0.33-0.5v-6.2
		l4.13-4.13c0.17-0.15,0.21-0.36,0.12-0.59C15.66,5.39,15.48,5.28,15.25,5.28z"/>
</g>
</svg>
